<svg
    xmlns="http://www.w3.org/2000/svg"
    viewBox="53 45 153 170"
  ><path
    fill="#E31837"
    d="m83.85 69.98-5.7.04a.41.41 0 0 0-.41.41l-.02 176.4a.41.41 0 0 1-.41.41l-24.63.02a.41.41 0 0 1-.41-.41V44.9a.41.41 0 0 1 .41-.41l56.93.03a.41.41 0 0 1 .41.41l-.02 201.9a.41.41 0 0 1-.41.41l-24.92.02a.41.41 0 0 1-.41-.41V70.39a.41.41 0 0 0-.41-.41ZM180.87 69.99l-5.98.02a.4.4 0 0 0-.4.4l.01 176.45a.4.4 0 0 1-.4.4l-25.06-.03a.4.4 0 0 1-.4-.4l-.02-176.44a.4.4 0 0 0-.4-.4h-5.54a.4.4 0 0 0-.4.4v176.47a.4.4 0 0 1-.4.4l-24.75-.03a.4.4 0 0 1-.4-.4l-.02-201.93a.4.4 0 0 1 .4-.4l89.24.01a.4.4 0 0 1 .4.4v201.93a.4.4 0 0 1-.4.4l-24.68.02a.4.4 0 0 1-.4-.4V70.39a.4.4 0 0 0-.4-.4Z"
  /></svg>